<svg id="visual" viewBox="0 0 960 540" width="960" height="540" xmlns="http://www.w3.org/2000/svg" xmlns:xlink="http://www.w3.org/1999/xlink" version="1.1"><path d="M0 28L64 28L128 44L192 55L256 33L320 39L384 33L448 44L512 39L576 33L640 28L704 55L768 55L832 39L896 55L960 28L960 0L896 0L832 0L768 0L704 0L640 0L576 0L512 0L448 0L384 0L320 0L256 0L192 0L128 0L64 0L0 0Z" fill="#010005"></path><path d="M0 120L64 87L128 114L192 120L256 141L320 125L384 93L448 98L512 98L576 87L640 120L704 109L768 152L832 120L896 125L960 114L960 26L896 53L832 37L768 53L704 53L640 26L576 31L512 37L448 42L384 31L320 37L256 31L192 53L128 42L64 26L0 26Z" fill="#180c1c"></path><path d="M0 201L64 201L128 201L192 271L256 228L320 293L384 228L448 255L512 190L576 217L640 260L704 249L768 239L832 282L896 314L960 228L960 112L896 123L832 118L768 150L704 107L640 118L576 85L512 96L448 96L384 91L320 123L256 139L192 118L128 112L64 85L0 118Z" fill="#2c1129"></path><path d="M0 271L64 233L128 255L192 303L256 303L320 336L384 282L448 314L512 228L576 255L640 309L704 303L768 303L832 336L896 352L960 293L960 226L896 312L832 280L768 237L704 247L640 258L576 215L512 188L448 253L384 226L320 291L256 226L192 269L128 199L64 199L0 199Z" fill="#460e2f"></path><path d="M0 330L64 325L128 336L192 384L256 357L320 417L384 347L448 374L512 314L576 309L640 401L704 368L768 384L832 411L896 417L960 363L960 291L896 350L832 334L768 301L704 301L640 307L576 253L512 226L448 312L384 280L320 334L256 301L192 301L128 253L64 231L0 269Z" fill="#61062d"></path><path d="M0 482L64 492L128 503L192 503L256 498L320 503L384 509L448 503L512 482L576 482L640 503L704 492L768 498L832 476L896 492L960 509L960 361L896 415L832 409L768 382L704 366L640 399L576 307L512 312L448 372L384 345L320 415L256 355L192 382L128 334L64 323L0 328Z" fill="#780123"></path><path d="M0 541L64 541L128 541L192 541L256 541L320 541L384 541L448 541L512 541L576 541L640 541L704 541L768 541L832 541L896 541L960 541L960 507L896 490L832 474L768 496L704 490L640 501L576 480L512 480L448 501L384 507L320 501L256 496L192 501L128 501L64 490L0 480Z" fill="#8a1111"></path></svg>